<?xml version="1.0" encoding="UTF-8"?>
<svg xmlns="http://www.w3.org/2000/svg" xmlns:xlink="http://www.w3.org/1999/xlink" width="50px" height="50px" viewBox="0 0 50 47" version="1.1">
<defs>
<linearGradient id="linear0" gradientUnits="userSpaceOnUse" x1="127.972" y1="0" x2="127.972" y2="255.996" gradientTransform="matrix(0.184502,0,0,0.183594,0,0)">
<stop offset="0" style="stop-color:rgb(98.039216%,44.705882%,40.784314%);stop-opacity:1;"/>
<stop offset="1" style="stop-color:rgb(77.647059%,13.72549%,40.784314%);stop-opacity:1;"/>
</linearGradient>
</defs>
<g id="surface1">
<path style=" stroke:none;fill-rule:nonzero;fill:rgb(67.843137%,0%,0%);fill-opacity:1;" d="M 30.582031 0 C 30.242188 0 29.925781 0.0742188 29.632812 0.171875 C 30.253906 0.585938 30.59375 1.132812 30.765625 1.753906 C 30.777344 1.839844 30.800781 1.902344 30.816406 1.984375 C 30.828125 2.058594 30.839844 2.132812 30.839844 2.207031 C 30.886719 3.277344 30.558594 3.410156 30.328125 4.046875 C 29.972656 4.863281 30.070312 5.738281 30.496094 6.445312 C 30.535156 6.53125 30.582031 6.628906 30.644531 6.714844 C 30.179688 3.632812 32.753906 3.167969 33.230469 2.207031 C 33.265625 1.363281 32.570312 0.804688 32.023438 0.414062 C 31.496094 0.0976562 31.023438 0 30.582031 0 Z M 34.460938 0.695312 C 34.410156 0.976562 34.449219 0.902344 34.4375 1.046875 C 34.425781 1.144531 34.425781 1.265625 34.414062 1.363281 C 34.386719 1.460938 34.363281 1.558594 34.328125 1.65625 C 34.300781 1.753906 34.265625 1.851562 34.230469 1.949219 C 34.179688 2.046875 34.144531 2.132812 34.09375 2.230469 C 34.058594 2.277344 34.035156 2.328125 33.996094 2.375 C 33.972656 2.414062 33.949219 2.449219 33.925781 2.484375 C 33.863281 2.570312 33.800781 2.65625 33.742188 2.730469 C 33.667969 2.800781 33.605469 2.886719 33.523438 2.949219 C 33.523438 2.960938 33.523438 2.960938 33.523438 2.960938 C 33.449219 3.023438 33.375 3.09375 33.289062 3.15625 C 33.035156 3.351562 32.742188 3.496094 32.472656 3.679688 C 32.386719 3.742188 32.300781 3.789062 32.230469 3.863281 C 32.144531 3.921875 32.070312 3.984375 31.996094 4.058594 C 31.914062 4.132812 31.851562 4.203125 31.777344 4.289062 C 31.71875 4.363281 31.644531 4.449219 31.59375 4.53125 C 31.535156 4.617188 31.472656 4.703125 31.425781 4.789062 C 31.375 4.886719 31.339844 4.972656 31.289062 5.070312 C 31.253906 5.167969 31.21875 5.25 31.191406 5.347656 C 31.15625 5.460938 31.132812 5.554688 31.105469 5.652344 C 31.09375 5.703125 31.09375 5.765625 31.082031 5.8125 C 31.070312 5.859375 31.070312 5.910156 31.058594 5.957031 C 31.058594 6.054688 31.046875 6.164062 31.046875 6.261719 C 31.046875 6.335938 31.046875 6.410156 31.058594 6.484375 C 31.058594 6.582031 31.070312 6.675781 31.09375 6.789062 C 31.105469 6.886719 31.132812 6.980469 31.15625 7.078125 C 31.191406 7.175781 31.21875 7.273438 31.253906 7.371094 C 31.277344 7.433594 31.316406 7.492188 31.339844 7.542969 L 28.535156 6.457031 C 28.058594 6.324219 27.59375 6.203125 27.121094 6.09375 C 26.863281 6.03125 26.605469 5.972656 26.351562 5.910156 C 25.621094 5.765625 24.875 5.652344 24.132812 5.582031 C 24.105469 5.582031 24.09375 5.570312 24.070312 5.570312 C 23.339844 5.496094 22.621094 5.460938 21.886719 5.460938 C 21.351562 5.460938 20.816406 5.484375 20.289062 5.519531 C 19.546875 5.570312 18.800781 5.667969 18.058594 5.789062 C 17.875 5.8125 17.691406 5.847656 17.507812 5.886719 C 17.132812 5.957031 16.765625 6.042969 16.410156 6.128906 C 16.230469 6.179688 16.046875 6.226562 15.863281 6.277344 C 15.679688 6.347656 15.507812 6.433594 15.339844 6.507812 C 15.203125 6.566406 15.070312 6.628906 14.9375 6.691406 C 14.910156 6.703125 14.886719 6.703125 14.875 6.714844 C 14.753906 6.773438 14.644531 6.824219 14.535156 6.882812 C 14.496094 6.898438 14.472656 6.910156 14.449219 6.921875 C 14.3125 6.980469 14.179688 7.054688 14.070312 7.117188 C 13.984375 7.152344 13.898438 7.203125 13.828125 7.238281 C 13.789062 7.261719 13.742188 7.285156 13.71875 7.300781 C 13.605469 7.359375 13.496094 7.421875 13.398438 7.480469 C 13.289062 7.542969 13.191406 7.605469 13.105469 7.664062 C 13.023438 7.726562 12.9375 7.773438 12.863281 7.835938 C 12.851562 7.847656 12.839844 7.847656 12.828125 7.859375 C 12.753906 7.910156 12.667969 7.96875 12.59375 8.03125 C 12.59375 8.03125 12.582031 8.042969 12.570312 8.054688 C 12.507812 8.101562 12.449219 8.152344 12.386719 8.199219 C 12.363281 8.214844 12.339844 8.238281 12.3125 8.25 C 12.253906 8.296875 12.191406 8.359375 12.132812 8.40625 C 12.121094 8.433594 12.09375 8.445312 12.082031 8.457031 C 12.007812 8.53125 11.9375 8.589844 11.863281 8.664062 C 11.851562 8.664062 11.851562 8.675781 11.839844 8.6875 C 11.765625 8.75 11.691406 8.820312 11.621094 8.894531 C 11.605469 8.90625 11.605469 8.917969 11.59375 8.917969 C 11.535156 8.980469 11.472656 9.042969 11.410156 9.113281 C 11.386719 9.140625 11.351562 9.164062 11.328125 9.1875 C 11.265625 9.261719 11.191406 9.332031 11.121094 9.40625 C 11.105469 9.429688 11.082031 9.445312 11.070312 9.46875 C 10.972656 9.566406 10.886719 9.664062 10.789062 9.761719 C 10.777344 9.773438 10.765625 9.785156 10.753906 9.796875 C 10.558594 10.003906 10.351562 10.210938 10.132812 10.394531 C 9.910156 10.589844 9.679688 10.773438 9.449219 10.929688 C 9.203125 11.101562 8.972656 11.246094 8.71875 11.394531 C 8.472656 11.527344 8.21875 11.648438 7.949219 11.757812 C 7.691406 11.867188 7.425781 11.964844 7.15625 12.050781 C 6.644531 12.160156 6.121094 12.367188 5.667969 12.40625 C 5.570312 12.40625 5.460938 12.429688 5.363281 12.441406 C 5.253906 12.464844 5.15625 12.488281 5.058594 12.515625 C 4.960938 12.550781 4.863281 12.585938 4.765625 12.625 C 4.667969 12.660156 4.570312 12.710938 4.472656 12.757812 C 4.386719 12.820312 4.289062 12.867188 4.203125 12.929688 C 4.121094 12.988281 4.035156 13.0625 3.960938 13.136719 C 3.875 13.195312 3.789062 13.28125 3.71875 13.355469 C 3.644531 13.441406 3.570312 13.511719 3.507812 13.597656 C 3.449219 13.695312 3.375 13.78125 3.328125 13.878906 C 3.265625 13.964844 3.203125 14.0625 3.15625 14.160156 C 3.105469 14.269531 3.058594 14.367188 3.023438 14.476562 C 2.984375 14.574219 2.949219 14.683594 2.910156 14.792969 C 2.886719 14.890625 2.863281 14.988281 2.851562 15.085938 C 2.851562 15.097656 2.839844 15.109375 2.839844 15.121094 C 2.8125 15.230469 2.8125 15.378906 2.800781 15.449219 C 2.789062 15.535156 2.777344 15.609375 2.777344 15.695312 C 2.777344 15.742188 2.777344 15.804688 2.789062 15.851562 C 2.800781 15.9375 2.8125 16.011719 2.839844 16.085938 C 2.863281 16.15625 2.886719 16.230469 2.925781 16.304688 C 2.925781 16.316406 2.925781 16.316406 2.925781 16.316406 C 2.960938 16.390625 3.007812 16.460938 3.058594 16.535156 C 3.105469 16.609375 3.15625 16.683594 3.21875 16.753906 C 3.277344 16.816406 3.351562 16.890625 3.425781 16.949219 C 3.496094 17.023438 3.570312 17.082031 3.65625 17.144531 C 3.949219 17.402344 4.023438 17.484375 4.398438 17.679688 C 4.460938 17.71875 4.523438 17.742188 4.59375 17.777344 C 4.605469 17.777344 4.621094 17.789062 4.632812 17.789062 C 4.632812 17.816406 4.632812 17.828125 4.644531 17.851562 C 4.65625 17.949219 4.679688 18.046875 4.703125 18.144531 C 4.730469 18.253906 4.765625 18.351562 4.800781 18.4375 C 4.839844 18.507812 4.863281 18.582031 4.898438 18.65625 C 4.910156 18.679688 4.925781 18.703125 4.9375 18.71875 C 4.984375 18.8125 5.035156 18.898438 5.082031 18.984375 C 5.144531 19.070312 5.203125 19.15625 5.265625 19.242188 C 5.328125 19.3125 5.398438 19.398438 5.472656 19.472656 C 5.546875 19.546875 5.621094 19.605469 5.703125 19.679688 C 5.703125 19.679688 5.71875 19.691406 5.730469 19.691406 C 5.800781 19.753906 5.875 19.8125 5.949219 19.863281 C 6.035156 19.921875 6.121094 19.972656 6.21875 20.019531 C 6.300781 20.070312 6.398438 20.117188 6.496094 20.15625 C 6.570312 20.191406 6.65625 20.214844 6.742188 20.238281 C 6.753906 20.253906 6.765625 20.253906 6.789062 20.265625 C 6.839844 20.277344 6.898438 20.289062 6.949219 20.300781 C 6.910156 20.957031 6.898438 21.582031 6.996094 21.800781 C 7.105469 22.042969 7.644531 21.300781 8.179688 20.445312 C 8.105469 21.289062 8.058594 22.273438 8.179688 22.566406 C 8.316406 22.871094 9.046875 21.921875 9.679688 20.875 C 18.328125 18.875 26.21875 24.847656 27.046875 33.277344 C 26.886719 31.960938 25.265625 31.230469 24.523438 31.414062 C 24.15625 32.316406 23.535156 33.472656 22.535156 34.191406 C 22.621094 33.386719 22.582031 32.558594 22.414062 31.753906 C 22.144531 32.875 21.621094 33.925781 20.898438 34.824219 C 19.742188 34.910156 18.582031 34.351562 17.972656 33.511719 C 17.925781 33.472656 17.914062 33.398438 17.875 33.351562 C 17.839844 33.265625 17.800781 33.179688 17.777344 33.09375 C 17.742188 33.011719 17.71875 32.925781 17.703125 32.839844 C 17.691406 32.753906 17.691406 32.667969 17.691406 32.570312 C 17.691406 32.511719 17.691406 32.449219 17.691406 32.390625 C 17.703125 32.304688 17.730469 32.21875 17.753906 32.132812 C 17.777344 32.046875 17.800781 31.960938 17.839844 31.878906 C 17.886719 31.792969 17.925781 31.707031 17.984375 31.621094 C 18.191406 31.035156 18.191406 30.5625 17.816406 30.28125 C 17.742188 30.230469 17.667969 30.195312 17.582031 30.160156 C 17.535156 30.148438 17.472656 30.121094 17.425781 30.109375 C 17.386719 30.097656 17.363281 30.085938 17.328125 30.074219 C 17.242188 30.050781 17.15625 30.023438 17.070312 30.011719 C 16.984375 29.988281 16.898438 29.976562 16.816406 29.976562 C 16.730469 29.964844 16.632812 29.953125 16.546875 29.953125 C 16.484375 29.953125 16.425781 29.964844 16.363281 29.964844 C 16.265625 29.964844 16.179688 29.976562 16.09375 30 C 16.007812 30.011719 15.925781 30.023438 15.839844 30.050781 C 15.753906 30.074219 15.667969 30.097656 15.582031 30.132812 C 15.496094 30.171875 15.425781 30.207031 15.339844 30.246094 C 15.265625 30.28125 15.191406 30.328125 15.105469 30.367188 C 12.265625 32.21875 13.960938 36.554688 15.898438 37.8125 C 15.167969 37.945312 14.425781 38.105469 14.21875 38.261719 C 14.203125 38.273438 14.191406 38.285156 14.191406 38.285156 C 14.71875 38.601562 15.265625 38.871094 15.839844 39.101562 C 16.621094 39.359375 17.449219 39.589844 17.816406 39.6875 L 17.816406 39.699219 C 18.828125 39.90625 19.851562 39.980469 20.886719 39.917969 C 26.289062 39.542969 30.71875 35.433594 31.523438 30.023438 C 31.546875 30.132812 31.570312 30.230469 31.59375 30.34375 C 31.632812 30.5625 31.679688 30.792969 31.703125 31.023438 C 31.703125 31.023438 31.703125 31.023438 31.703125 31.035156 C 31.730469 31.144531 31.742188 31.253906 31.753906 31.351562 C 31.753906 31.378906 31.753906 31.390625 31.753906 31.402344 C 31.765625 31.511719 31.777344 31.621094 31.777344 31.71875 C 31.789062 31.851562 31.800781 31.988281 31.800781 32.121094 C 31.800781 32.183594 31.800781 32.242188 31.800781 32.316406 C 31.800781 32.375 31.816406 32.449219 31.816406 32.511719 C 31.816406 32.582031 31.800781 32.65625 31.800781 32.730469 C 31.800781 32.792969 31.800781 32.851562 31.800781 32.902344 C 31.800781 32.984375 31.789062 33.058594 31.789062 33.144531 C 31.789062 33.191406 31.789062 33.242188 31.777344 33.304688 C 31.777344 33.386719 31.765625 33.472656 31.765625 33.570312 C 31.753906 33.605469 31.753906 33.644531 31.753906 33.679688 C 31.742188 33.777344 31.730469 33.863281 31.71875 33.960938 C 31.71875 33.996094 31.71875 34.035156 31.703125 34.070312 C 31.691406 34.191406 31.667969 34.300781 31.65625 34.421875 L 31.65625 34.449219 C 31.632812 34.558594 31.605469 34.679688 31.582031 34.789062 C 31.582031 34.800781 31.582031 34.8125 31.582031 34.824219 C 31.558594 34.9375 31.535156 35.046875 31.507812 35.15625 C 31.507812 35.167969 31.496094 35.191406 31.496094 35.203125 C 31.472656 35.3125 31.449219 35.421875 31.410156 35.53125 C 31.410156 35.546875 31.410156 35.558594 31.410156 35.570312 C 31.375 35.691406 31.339844 35.800781 31.316406 35.910156 C 31.300781 35.921875 31.300781 35.933594 31.300781 35.933594 C 31.265625 36.058594 31.230469 36.179688 31.191406 36.300781 C 31.144531 36.421875 31.105469 36.53125 31.058594 36.652344 C 31.007812 36.777344 30.972656 36.898438 30.925781 37.007812 C 30.875 37.128906 30.828125 37.238281 30.777344 37.359375 L 30.765625 37.359375 C 30.714844 37.46875 30.667969 37.59375 30.605469 37.703125 C 30.59375 37.738281 30.582031 37.761719 30.570312 37.785156 C 30.558594 37.800781 30.558594 37.8125 30.546875 37.824219 C 29.753906 39.421875 28.582031 40.820312 27.121094 41.917969 C 27.023438 41.980469 26.925781 42.050781 26.828125 42.125 C 26.800781 42.148438 26.765625 42.160156 26.742188 42.1875 C 26.65625 42.246094 26.570312 42.308594 26.472656 42.367188 L 26.507812 42.441406 L 26.523438 42.441406 C 26.691406 42.417969 26.863281 42.394531 27.035156 42.367188 L 27.046875 42.367188 C 27.363281 42.320312 27.679688 42.257812 27.996094 42.199219 C 28.082031 42.1875 28.179688 42.160156 28.265625 42.136719 C 28.328125 42.125 28.375 42.113281 28.4375 42.101562 C 28.523438 42.089844 28.605469 42.0625 28.691406 42.050781 C 28.765625 42.027344 28.839844 42.015625 28.910156 41.992188 C 30.132812 41.699219 31.316406 41.296875 32.449219 40.820312 C 30.507812 43.464844 27.910156 45.597656 24.875 47 C 26.277344 46.902344 27.679688 46.671875 29.035156 46.28125 C 33.949219 44.832031 38.082031 41.527344 40.558594 37.082031 C 40.058594 39.894531 38.9375 42.574219 37.277344 44.914062 C 38.460938 44.136719 39.546875 43.234375 40.535156 42.210938 C 43.265625 39.359375 45.058594 35.738281 45.667969 31.851562 C 46.082031 33.777344 46.203125 35.765625 46.023438 37.726562 C 54.828125 25.457031 46.753906 12.734375 43.375 9.382812 C 43.363281 9.359375 43.351562 9.347656 43.351562 9.320312 C 43.339844 9.335938 43.339844 9.335938 43.339844 9.347656 C 43.339844 9.335938 43.339844 9.335938 43.328125 9.320312 C 43.328125 9.46875 43.316406 9.613281 43.300781 9.761719 C 43.265625 10.039062 43.230469 10.308594 43.179688 10.578125 C 43.121094 10.84375 43.046875 11.113281 42.972656 11.382812 C 42.886719 11.636719 42.789062 11.90625 42.679688 12.160156 C 42.570312 12.40625 42.449219 12.660156 42.316406 12.90625 C 42.179688 13.136719 42.035156 13.378906 41.875 13.597656 C 41.71875 13.832031 41.546875 14.050781 41.375 14.257812 C 41.191406 14.476562 40.996094 14.671875 40.800781 14.867188 C 40.679688 14.976562 40.570312 15.074219 40.449219 15.171875 C 40.351562 15.257812 40.265625 15.328125 40.167969 15.414062 C 39.949219 15.585938 39.730469 15.742188 39.484375 15.890625 C 39.253906 16.035156 39.007812 16.183594 38.765625 16.304688 C 38.507812 16.425781 38.253906 16.535156 37.996094 16.644531 C 37.742188 16.742188 37.472656 16.828125 37.203125 16.902344 C 36.9375 16.972656 36.65625 17.035156 36.386719 17.085938 C 36.105469 17.132812 35.828125 17.15625 35.558594 17.179688 C 35.363281 17.195312 35.167969 17.207031 34.972656 17.207031 C 34.691406 17.207031 34.410156 17.179688 34.144531 17.15625 C 33.863281 17.132812 33.582031 17.097656 33.316406 17.035156 C 33.035156 16.988281 32.765625 16.914062 32.496094 16.828125 L 32.484375 16.828125 C 32.753906 16.804688 33.023438 16.78125 33.289062 16.730469 C 33.570312 16.683594 33.839844 16.621094 34.105469 16.546875 C 34.375 16.476562 34.644531 16.390625 34.898438 16.292969 C 35.167969 16.195312 35.425781 16.074219 35.667969 15.949219 C 35.925781 15.828125 36.15625 15.695312 36.398438 15.546875 C 36.632812 15.390625 36.863281 15.230469 37.082031 15.0625 C 37.300781 14.890625 37.507812 14.707031 37.703125 14.511719 C 37.914062 14.332031 38.09375 14.121094 38.277344 13.914062 C 38.460938 13.695312 38.632812 13.476562 38.789062 13.257812 C 38.816406 13.222656 38.839844 13.171875 38.863281 13.136719 C 38.984375 12.941406 39.105469 12.746094 39.21875 12.550781 C 39.351562 12.308594 39.472656 12.0625 39.582031 11.808594 C 39.691406 11.550781 39.789062 11.296875 39.875 11.027344 C 39.960938 10.773438 40.023438 10.503906 40.082031 10.234375 C 40.132812 9.957031 40.179688 9.6875 40.203125 9.417969 C 40.230469 9.140625 40.253906 8.859375 40.253906 8.589844 C 40.253906 8.394531 40.242188 8.199219 40.230469 8.007812 C 40.203125 7.726562 40.167969 7.457031 40.132812 7.191406 C 40.082031 6.910156 40.023438 6.640625 39.949219 6.371094 C 39.863281 6.117188 39.777344 5.847656 39.679688 5.59375 C 39.582031 5.335938 39.460938 5.082031 39.339844 4.835938 C 39.203125 4.59375 39.070312 4.351562 38.925781 4.117188 C 38.765625 3.886719 38.605469 3.667969 38.4375 3.449219 C 38.253906 3.242188 38.070312 3.035156 37.875 2.828125 C 37.777344 2.730469 37.667969 2.621094 37.558594 2.523438 C 37.007812 2.097656 36.4375 1.695312 35.863281 1.328125 C 35.777344 1.28125 35.703125 1.242188 35.621094 1.207031 C 35.21875 0.949219 34.839844 0.816406 34.460938 0.695312 Z M 34.460938 0.695312 "/>
<path style=" stroke:none;fill-rule:nonzero;fill:url(#linear0);" d="M 27.804688 0 C 27.464844 0 27.148438 0.0742188 26.855469 0.171875 C 27.476562 0.585938 27.816406 1.132812 27.988281 1.753906 C 28 1.839844 28.023438 1.902344 28.035156 1.984375 C 28.050781 2.058594 28.0625 2.132812 28.0625 2.207031 C 28.109375 3.277344 27.78125 3.410156 27.550781 4.046875 C 27.195312 4.863281 27.292969 5.738281 27.71875 6.445312 C 27.757812 6.53125 27.804688 6.628906 27.867188 6.714844 C 27.402344 3.632812 29.976562 3.167969 30.453125 2.207031 C 30.488281 1.363281 29.792969 0.804688 29.242188 0.414062 C 28.71875 0.0976562 28.242188 0 27.804688 0 Z M 31.683594 0.695312 C 31.632812 0.976562 31.671875 0.902344 31.660156 1.046875 C 31.648438 1.144531 31.648438 1.265625 31.632812 1.363281 C 31.609375 1.460938 31.585938 1.558594 31.550781 1.65625 C 31.523438 1.753906 31.488281 1.851562 31.453125 1.949219 C 31.402344 2.046875 31.367188 2.132812 31.316406 2.230469 C 31.28125 2.277344 31.257812 2.328125 31.21875 2.375 C 31.195312 2.414062 31.171875 2.449219 31.148438 2.484375 C 31.085938 2.570312 31.023438 2.65625 30.964844 2.730469 C 30.890625 2.800781 30.828125 2.886719 30.742188 2.949219 C 30.742188 2.960938 30.742188 2.960938 30.742188 2.960938 C 30.671875 3.023438 30.597656 3.09375 30.511719 3.15625 C 30.257812 3.351562 29.964844 3.496094 29.695312 3.679688 C 29.609375 3.742188 29.523438 3.789062 29.453125 3.863281 C 29.367188 3.921875 29.292969 3.984375 29.21875 4.058594 C 29.132812 4.132812 29.074219 4.203125 29 4.289062 C 28.9375 4.363281 28.867188 4.449219 28.816406 4.53125 C 28.757812 4.617188 28.695312 4.703125 28.648438 4.789062 C 28.597656 4.886719 28.5625 4.972656 28.511719 5.070312 C 28.476562 5.167969 28.4375 5.25 28.414062 5.347656 C 28.378906 5.460938 28.355469 5.554688 28.328125 5.652344 C 28.316406 5.703125 28.316406 5.765625 28.304688 5.8125 C 28.292969 5.859375 28.292969 5.910156 28.28125 5.957031 C 28.28125 6.054688 28.269531 6.164062 28.269531 6.261719 C 28.269531 6.335938 28.269531 6.410156 28.28125 6.484375 C 28.28125 6.582031 28.292969 6.675781 28.316406 6.789062 C 28.328125 6.886719 28.355469 6.980469 28.378906 7.078125 C 28.414062 7.175781 28.4375 7.273438 28.476562 7.371094 C 28.5 7.433594 28.535156 7.492188 28.5625 7.542969 L 25.757812 6.457031 C 25.28125 6.324219 24.816406 6.203125 24.339844 6.09375 C 24.085938 6.03125 23.828125 5.972656 23.574219 5.910156 C 22.839844 5.765625 22.097656 5.652344 21.355469 5.582031 C 21.328125 5.582031 21.316406 5.570312 21.292969 5.570312 C 20.5625 5.496094 19.839844 5.460938 19.109375 5.460938 C 18.574219 5.460938 18.035156 5.484375 17.511719 5.519531 C 16.769531 5.570312 16.023438 5.667969 15.28125 5.789062 C 15.097656 5.8125 14.914062 5.847656 14.730469 5.886719 C 14.355469 5.957031 13.988281 6.042969 13.632812 6.128906 C 13.453125 6.179688 13.269531 6.226562 13.085938 6.277344 C 12.902344 6.347656 12.730469 6.433594 12.5625 6.507812 C 12.425781 6.566406 12.292969 6.628906 12.160156 6.691406 C 12.132812 6.703125 12.109375 6.703125 12.097656 6.714844 C 11.976562 6.773438 11.867188 6.824219 11.757812 6.882812 C 11.71875 6.898438 11.695312 6.910156 11.671875 6.921875 C 11.535156 6.980469 11.402344 7.054688 11.292969 7.117188 C 11.207031 7.152344 11.121094 7.203125 11.050781 7.238281 C 11.011719 7.261719 10.964844 7.285156 10.9375 7.300781 C 10.828125 7.359375 10.71875 7.421875 10.621094 7.480469 C 10.511719 7.542969 10.414062 7.605469 10.328125 7.664062 C 10.242188 7.726562 10.160156 7.773438 10.085938 7.835938 C 10.074219 7.847656 10.0625 7.847656 10.050781 7.859375 C 9.976562 7.910156 9.890625 7.96875 9.816406 8.03125 C 9.816406 8.03125 9.804688 8.042969 9.792969 8.054688 C 9.730469 8.101562 9.671875 8.152344 9.609375 8.199219 C 9.585938 8.214844 9.5625 8.238281 9.535156 8.25 C 9.476562 8.296875 9.414062 8.359375 9.355469 8.40625 C 9.339844 8.433594 9.316406 8.445312 9.304688 8.457031 C 9.230469 8.53125 9.160156 8.589844 9.085938 8.664062 C 9.074219 8.664062 9.074219 8.675781 9.0625 8.6875 C 8.988281 8.75 8.914062 8.820312 8.839844 8.894531 C 8.828125 8.90625 8.828125 8.917969 8.816406 8.917969 C 8.757812 8.980469 8.695312 9.042969 8.632812 9.113281 C 8.609375 9.140625 8.574219 9.164062 8.550781 9.1875 C 8.488281 9.261719 8.414062 9.332031 8.339844 9.40625 C 8.328125 9.429688 8.304688 9.445312 8.292969 9.46875 C 8.195312 9.566406 8.109375 9.664062 8.011719 9.761719 C 8 9.773438 7.988281 9.785156 7.976562 9.796875 C 7.78125 10.003906 7.574219 10.210938 7.355469 10.394531 C 7.132812 10.589844 6.902344 10.773438 6.671875 10.929688 C 6.425781 11.101562 6.195312 11.246094 5.9375 11.394531 C 5.695312 11.527344 5.4375 11.648438 5.171875 11.757812 C 4.914062 11.867188 4.644531 11.964844 4.378906 12.050781 C 3.867188 12.160156 3.339844 12.367188 2.890625 12.40625 C 2.792969 12.40625 2.683594 12.429688 2.585938 12.441406 C 2.476562 12.464844 2.378906 12.488281 2.28125 12.515625 C 2.183594 12.550781 2.085938 12.585938 1.988281 12.625 C 1.890625 12.660156 1.792969 12.710938 1.695312 12.757812 C 1.609375 12.820312 1.511719 12.867188 1.425781 12.929688 C 1.339844 12.988281 1.257812 13.0625 1.183594 13.136719 C 1.097656 13.195312 1.011719 13.28125 0.9375 13.355469 C 0.867188 13.441406 0.792969 13.511719 0.730469 13.597656 C 0.671875 13.695312 0.597656 13.78125 0.546875 13.878906 C 0.488281 13.964844 0.425781 14.0625 0.378906 14.160156 C 0.328125 14.269531 0.28125 14.367188 0.242188 14.476562 C 0.207031 14.574219 0.171875 14.683594 0.132812 14.792969 C 0.109375 14.890625 0.0859375 14.988281 0.0742188 15.085938 C 0.0742188 15.097656 0.0625 15.109375 0.0625 15.121094 C 0.0351562 15.230469 0.0351562 15.378906 0.0234375 15.449219 C 0.0117188 15.535156 0 15.609375 0 15.695312 C 0 15.742188 0 15.804688 0.0117188 15.851562 C 0.0234375 15.9375 0.0351562 16.011719 0.0625 16.085938 C 0.0859375 16.15625 0.109375 16.230469 0.144531 16.304688 C 0.144531 16.316406 0.144531 16.316406 0.144531 16.316406 C 0.183594 16.390625 0.230469 16.460938 0.28125 16.535156 C 0.328125 16.609375 0.378906 16.683594 0.4375 16.753906 C 0.5 16.816406 0.574219 16.890625 0.644531 16.949219 C 0.71875 17.023438 0.792969 17.082031 0.878906 17.144531 C 1.171875 17.402344 1.242188 17.484375 1.621094 17.679688 C 1.683594 17.71875 1.742188 17.742188 1.816406 17.777344 C 1.828125 17.777344 1.839844 17.789062 1.855469 17.789062 C 1.855469 17.816406 1.855469 17.828125 1.867188 17.851562 C 1.878906 17.949219 1.902344 18.046875 1.925781 18.144531 C 1.953125 18.253906 1.988281 18.351562 2.023438 18.4375 C 2.0625 18.507812 2.085938 18.582031 2.121094 18.65625 C 2.132812 18.679688 2.144531 18.703125 2.160156 18.71875 C 2.207031 18.8125 2.257812 18.898438 2.304688 18.984375 C 2.367188 19.070312 2.425781 19.15625 2.488281 19.242188 C 2.550781 19.3125 2.621094 19.398438 2.695312 19.472656 C 2.769531 19.546875 2.839844 19.605469 2.925781 19.679688 C 2.925781 19.679688 2.9375 19.691406 2.953125 19.691406 C 3.023438 19.753906 3.097656 19.8125 3.171875 19.863281 C 3.257812 19.921875 3.339844 19.972656 3.4375 20.019531 C 3.523438 20.070312 3.621094 20.117188 3.71875 20.15625 C 3.792969 20.191406 3.878906 20.214844 3.964844 20.238281 C 3.976562 20.253906 3.988281 20.253906 4.011719 20.265625 C 4.0625 20.277344 4.121094 20.289062 4.171875 20.300781 C 4.132812 20.957031 4.121094 21.582031 4.21875 21.800781 C 4.328125 22.042969 4.867188 21.300781 5.402344 20.445312 C 5.328125 21.289062 5.28125 22.273438 5.402344 22.566406 C 5.535156 22.871094 6.269531 21.921875 6.902344 20.875 C 15.550781 18.875 23.4375 24.847656 24.269531 33.277344 C 24.109375 31.960938 22.488281 31.230469 21.742188 31.414062 C 21.378906 32.316406 20.757812 33.472656 19.757812 34.191406 C 19.839844 33.386719 19.804688 32.558594 19.632812 31.753906 C 19.367188 32.875 18.839844 33.925781 18.121094 34.824219 C 16.964844 34.910156 15.804688 34.351562 15.195312 33.511719 C 15.148438 33.472656 15.132812 33.398438 15.097656 33.351562 C 15.0625 33.265625 15.023438 33.179688 15 33.09375 C 14.964844 33.011719 14.9375 32.925781 14.925781 32.839844 C 14.914062 32.753906 14.914062 32.667969 14.914062 32.570312 C 14.914062 32.511719 14.914062 32.449219 14.914062 32.390625 C 14.925781 32.304688 14.953125 32.21875 14.976562 32.132812 C 15 32.046875 15.023438 31.960938 15.0625 31.878906 C 15.109375 31.792969 15.148438 31.707031 15.207031 31.621094 C 15.414062 31.035156 15.414062 30.5625 15.035156 30.28125 C 14.964844 30.230469 14.890625 30.195312 14.804688 30.160156 C 14.757812 30.148438 14.695312 30.121094 14.648438 30.109375 C 14.609375 30.097656 14.585938 30.085938 14.550781 30.074219 C 14.464844 30.050781 14.378906 30.023438 14.292969 30.011719 C 14.207031 29.988281 14.121094 29.976562 14.035156 29.976562 C 13.953125 29.964844 13.855469 29.953125 13.769531 29.953125 C 13.707031 29.953125 13.648438 29.964844 13.585938 29.964844 C 13.488281 29.964844 13.402344 29.976562 13.316406 30 C 13.230469 30.011719 13.148438 30.023438 13.0625 30.050781 C 12.976562 30.074219 12.890625 30.097656 12.804688 30.132812 C 12.71875 30.171875 12.648438 30.207031 12.5625 30.246094 C 12.488281 30.28125 12.414062 30.328125 12.328125 30.367188 C 9.488281 32.21875 11.183594 36.554688 13.121094 37.8125 C 12.390625 37.945312 11.644531 38.105469 11.4375 38.261719 C 11.425781 38.273438 11.414062 38.285156 11.414062 38.285156 C 11.9375 38.601562 12.488281 38.871094 13.0625 39.101562 C 13.839844 39.359375 14.671875 39.589844 15.035156 39.6875 L 15.035156 39.699219 C 16.050781 39.90625 17.074219 39.980469 18.109375 39.917969 C 23.511719 39.542969 27.9375 35.433594 28.746094 30.023438 C 28.769531 30.132812 28.792969 30.230469 28.816406 30.34375 C 28.855469 30.5625 28.902344 30.792969 28.925781 31.023438 C 28.925781 31.023438 28.925781 31.023438 28.925781 31.035156 C 28.953125 31.144531 28.964844 31.253906 28.976562 31.351562 C 28.976562 31.378906 28.976562 31.390625 28.976562 31.402344 C 28.988281 31.511719 29 31.621094 29 31.71875 C 29.011719 31.851562 29.023438 31.988281 29.023438 32.121094 C 29.023438 32.183594 29.023438 32.242188 29.023438 32.316406 C 29.023438 32.375 29.035156 32.449219 29.035156 32.511719 C 29.035156 32.582031 29.023438 32.65625 29.023438 32.730469 C 29.023438 32.792969 29.023438 32.851562 29.023438 32.902344 C 29.023438 32.984375 29.011719 33.058594 29.011719 33.144531 C 29.011719 33.191406 29.011719 33.242188 29 33.304688 C 29 33.386719 28.988281 33.472656 28.988281 33.570312 C 28.976562 33.605469 28.976562 33.644531 28.976562 33.679688 C 28.964844 33.777344 28.953125 33.863281 28.9375 33.960938 C 28.9375 33.996094 28.9375 34.035156 28.925781 34.070312 C 28.914062 34.191406 28.890625 34.300781 28.878906 34.421875 L 28.878906 34.449219 C 28.855469 34.558594 28.828125 34.679688 28.804688 34.789062 C 28.804688 34.800781 28.804688 34.8125 28.804688 34.824219 C 28.78125 34.9375 28.757812 35.046875 28.730469 35.15625 C 28.730469 35.167969 28.71875 35.191406 28.71875 35.203125 C 28.695312 35.3125 28.671875 35.421875 28.632812 35.53125 C 28.632812 35.546875 28.632812 35.558594 28.632812 35.570312 C 28.597656 35.691406 28.5625 35.800781 28.535156 35.910156 C 28.523438 35.921875 28.523438 35.933594 28.523438 35.933594 C 28.488281 36.058594 28.453125 36.179688 28.414062 36.300781 C 28.367188 36.421875 28.328125 36.53125 28.28125 36.652344 C 28.230469 36.777344 28.195312 36.898438 28.148438 37.007812 C 28.097656 37.128906 28.050781 37.238281 28 37.359375 L 27.988281 37.359375 C 27.9375 37.46875 27.890625 37.59375 27.828125 37.703125 C 27.816406 37.738281 27.804688 37.761719 27.792969 37.785156 C 27.78125 37.800781 27.78125 37.8125 27.769531 37.824219 C 26.976562 39.421875 25.804688 40.820312 24.339844 41.917969 C 24.242188 41.980469 24.144531 42.050781 24.050781 42.125 C 24.023438 42.148438 23.988281 42.160156 23.964844 42.1875 C 23.878906 42.246094 23.792969 42.308594 23.695312 42.367188 L 23.730469 42.441406 L 23.742188 42.441406 C 23.914062 42.417969 24.085938 42.394531 24.257812 42.367188 L 24.269531 42.367188 C 24.585938 42.320312 24.902344 42.257812 25.21875 42.199219 C 25.304688 42.1875 25.402344 42.160156 25.488281 42.136719 C 25.550781 42.125 25.597656 42.113281 25.660156 42.101562 C 25.742188 42.089844 25.828125 42.0625 25.914062 42.050781 C 25.988281 42.027344 26.0625 42.015625 26.132812 41.992188 C 27.355469 41.699219 28.535156 41.296875 29.671875 40.820312 C 27.730469 43.464844 25.132812 45.597656 22.097656 47 C 23.5 46.902344 24.902344 46.671875 26.257812 46.28125 C 31.171875 44.832031 35.304688 41.527344 37.78125 37.082031 C 37.28125 39.894531 36.160156 42.574219 34.5 44.914062 C 35.683594 44.136719 36.769531 43.234375 37.757812 42.210938 C 40.488281 39.359375 42.28125 35.738281 42.890625 31.851562 C 43.304688 33.777344 43.425781 35.765625 43.242188 37.726562 C 52.050781 25.457031 43.976562 12.734375 40.597656 9.382812 C 40.585938 9.359375 40.574219 9.347656 40.574219 9.320312 C 40.5625 9.335938 40.5625 9.335938 40.5625 9.347656 C 40.5625 9.335938 40.5625 9.335938 40.550781 9.320312 C 40.550781 9.46875 40.535156 9.613281 40.523438 9.761719 C 40.488281 10.039062 40.453125 10.308594 40.402344 10.578125 C 40.339844 10.84375 40.269531 11.113281 40.195312 11.382812 C 40.109375 11.636719 40.011719 11.90625 39.902344 12.160156 C 39.792969 12.40625 39.671875 12.660156 39.535156 12.90625 C 39.402344 13.136719 39.257812 13.378906 39.097656 13.597656 C 38.9375 13.832031 38.769531 14.050781 38.597656 14.257812 C 38.414062 14.476562 38.21875 14.671875 38.023438 14.867188 C 37.902344 14.976562 37.792969 15.074219 37.671875 15.171875 C 37.574219 15.257812 37.488281 15.328125 37.390625 15.414062 C 37.171875 15.585938 36.953125 15.742188 36.707031 15.890625 C 36.476562 16.035156 36.230469 16.183594 35.988281 16.304688 C 35.730469 16.425781 35.476562 16.535156 35.21875 16.644531 C 34.964844 16.742188 34.695312 16.828125 34.425781 16.902344 C 34.160156 16.972656 33.878906 17.035156 33.609375 17.085938 C 33.328125 17.132812 33.050781 17.15625 32.78125 17.179688 C 32.585938 17.195312 32.390625 17.207031 32.195312 17.207031 C 31.914062 17.207031 31.632812 17.179688 31.367188 17.15625 C 31.085938 17.132812 30.804688 17.097656 30.535156 17.035156 C 30.257812 16.988281 29.988281 16.914062 29.71875 16.828125 L 29.707031 16.828125 C 29.976562 16.804688 30.242188 16.78125 30.511719 16.730469 C 30.792969 16.683594 31.0625 16.621094 31.328125 16.546875 C 31.597656 16.476562 31.867188 16.390625 32.121094 16.292969 C 32.390625 16.195312 32.648438 16.074219 32.890625 15.949219 C 33.148438 15.828125 33.378906 15.695312 33.621094 15.546875 C 33.855469 15.390625 34.085938 15.230469 34.304688 15.0625 C 34.523438 14.890625 34.730469 14.707031 34.925781 14.511719 C 35.132812 14.332031 35.316406 14.121094 35.5 13.914062 C 35.683594 13.695312 35.855469 13.476562 36.011719 13.257812 C 36.035156 13.222656 36.0625 13.171875 36.085938 13.136719 C 36.207031 12.941406 36.328125 12.746094 36.4375 12.550781 C 36.574219 12.308594 36.695312 12.0625 36.804688 11.808594 C 36.914062 11.550781 37.011719 11.296875 37.097656 11.027344 C 37.183594 10.773438 37.242188 10.503906 37.304688 10.234375 C 37.355469 9.957031 37.402344 9.6875 37.425781 9.417969 C 37.453125 9.140625 37.476562 8.859375 37.476562 8.589844 C 37.476562 8.394531 37.464844 8.199219 37.453125 8.007812 C 37.425781 7.726562 37.390625 7.457031 37.355469 7.191406 C 37.304688 6.910156 37.242188 6.640625 37.171875 6.371094 C 37.085938 6.117188 37 5.847656 36.902344 5.59375 C 36.804688 5.335938 36.683594 5.082031 36.5625 4.835938 C 36.425781 4.59375 36.292969 4.351562 36.148438 4.117188 C 35.988281 3.886719 35.828125 3.667969 35.660156 3.449219 C 35.476562 3.242188 35.292969 3.035156 35.097656 2.828125 C 35 2.730469 34.890625 2.621094 34.78125 2.523438 C 34.230469 2.097656 33.660156 1.695312 33.085938 1.328125 C 33 1.28125 32.925781 1.242188 32.839844 1.207031 C 32.4375 0.949219 32.0625 0.816406 31.683594 0.695312 Z M 31.683594 0.695312 "/>
</g>
</svg>
